<?xml version="1.0" encoding="iso-8859-1"?>
<!-- Generator: Adobe Illustrator 19.0.0, SVG Export Plug-In . SVG Version: 6.00 Build 0)  -->
<svg version="1.1" id="Layer_1" xmlns="http://www.w3.org/2000/svg" xmlns:xlink="http://www.w3.org/1999/xlink" x="0px" y="0px"
	 viewBox="0 0 512 512" style="enable-background:new 0 0 512 512;" xml:space="preserve">
<g>
	<g>
		<path d="M382.711,243.2c-6.084-60.322-53.589-107.827-113.911-113.911V102.4h-25.6v26.888
			c-60.322,6.076-107.827,53.589-113.911,113.911H102.4v25.6h26.888c6.076,60.322,53.589,107.827,113.911,113.911V409.6h25.6
			v-26.889c60.322-6.076,107.827-53.589,113.911-113.911H409.6v-25.6H382.711z M243.2,357.103
			c-46.14-5.837-82.466-42.163-88.303-88.303H243.2V357.103z M243.2,243.2h-88.303c5.837-46.14,42.163-82.466,88.303-88.303V243.2z
			 M268.8,357.103V268.8h88.303C351.266,314.94,314.94,351.266,268.8,357.103z M268.8,243.2v-88.303
			c46.14,5.837,82.466,42.163,88.303,88.303H268.8z"/>
	</g>
</g>
<g>
	<g>
		<path d="M485.751,243.2C479.309,126.208,385.792,32.691,268.8,26.249V0h-25.6v26.249C126.208,32.691,32.691,126.208,26.249,243.2
			H0v25.6h26.249c6.443,116.992,99.959,210.509,216.951,216.951V512h25.6v-26.249c116.992-6.443,210.509-99.959,216.951-216.951H512
			v-25.6H485.751z M460.151,268.8C453.76,371.507,371.507,453.76,268.8,460.151V435.2h-25.6v24.951
			C140.493,453.76,58.24,371.507,51.849,268.8H76.8v-25.6H51.849C58.24,140.493,140.493,58.24,243.2,51.849V76.8h25.6V51.849
			C371.507,58.24,453.76,140.493,460.151,243.2H435.2v25.6H460.151z"/>
	</g>
</g>
<g>
</g>
<g>
</g>
<g>
</g>
<g>
</g>
<g>
</g>
<g>
</g>
<g>
</g>
<g>
</g>
<g>
</g>
<g>
</g>
<g>
</g>
<g>
</g>
<g>
</g>
<g>
</g>
<g>
</g>
</svg>
