<?xml version="1.0" encoding="UTF-8"?>
<svg width="111.58" height="111.58" version="1.1" xmlns="http://www.w3.org/2000/svg" xmlns:cc="http://creativecommons.org/ns#" xmlns:dc="http://purl.org/dc/elements/1.1/" xmlns:rdf="http://www.w3.org/1999/02/22-rdf-syntax-ns#">
 <title>Sciense Icon</title>
 <desc>This is shape (source) for Clarity vector icon theme for gtk</desc>
 <metadata>
  <rdf:RDF>
   <cc:Work rdf:about="">
    <dc:title>Sciense Icon</dc:title>
    <dc:description>This is shape (source) for Clarity vector icon theme for gtk</dc:description>
    <dc:creator>
     <cc:Agent>
      <dc:title>Jakub Jankiewicz</dc:title>
     </cc:Agent>
    </dc:creator>
    <dc:rights>
     <cc:Agent>
      <dc:title>Jakub Jankiewicz</dc:title>
     </cc:Agent>
    </dc:rights>
    <dc:date>2010</dc:date>
    <dc:format>image/svg+xml</dc:format>
    <dc:type rdf:resource="http://purl.org/dc/dcmitype/StillImage"/>
    <cc:license rdf:resource="http://creativecommons.org/licenses/by-sa/3.0/"/>
   </cc:Work>
  </rdf:RDF>
 </metadata>
 <path d="m28.529 0c-3.65 0-6.9906 0.49053-9.8001 1.3075l-16.987 5.0848c-1.0275 0.26369-1.7422 1.1904-1.7422 2.2519s0.71469 1.9882 1.7422 2.2519l1.5971 0.43584 8.3482 10.242v68.573c-1.2418 1.0061-2.323 2.2256-2.323 3.9952v2.3245c0 1.6823 0.96338 3.1036 2.1052 4.0679 1.1418 0.96422 2.5627 1.663 4.2104 2.2518 3.2954 1.1777 7.5558 1.816 12.268 1.816 1.3289 0 2.602-0.0501 3.8474-0.14527 0.62353 0.55724 1.2665 1.1024 1.96 1.5981 4.8693 3.4803 11.403 5.5207 18.584 5.5207s13.715-2.0404 18.584-5.5207c4.5545-3.2553 7.6699-7.9034 8.0579-13.148 7.8009-0.10085 14.897-1.1941 20.254-3.1235 2.8049-1.0104 5.1084-2.2553 6.8963-3.7773 1.788-1.522 3.1215-3.4943 3.1215-5.8112v-46.417c1.2766-1.3201 2.323-2.8522 2.323-4.7216v-2.3245c0-2.3868-1.5912-4.3864-3.5571-5.666-1.9658-1.2796-4.4123-2.1413-7.4045-2.833-5.9844-1.3834-13.961-1.9613-22.722-1.9613s-16.737 0.57787-22.722 1.9613c-2.9922 0.69171-5.4387 1.5534-7.4045 2.833-1.9658 1.2796-3.5571 3.2792-3.5571 5.666v-13.874c1.2555-1.0709 2.323-2.3854 2.323-4.2131 0-1.6523-0.86098-3.0949-1.96-4.1405-1.099-1.0456-2.4568-1.8204-4.0652-2.4698-3.2168-1.2988-7.3956-2.0339-11.978-2.0339zm0 4.649c4.0731 0 7.7762 0.67771 10.236 1.6707 1.2297 0.49651 2.1248 1.0606 2.6134 1.5255 0.4886 0.46485 0.50815 0.71541 0.50815 0.79904 0 0.03494-0.16457 0.47912-1.3067 1.2349-0.64739 0.44063-1.0294 1.1779-1.0163 1.9613v32.833c-1.7344 0.66125-3.4572 1.3251-5.2993 1.8887-0.78172 0.2285-1.3891 0.88285-1.5971 1.6707-0.20794 0.78788 0.01268 1.5942 0.58075 2.1792l6.3156 6.6829v5.3754c-0.17649 0.41454-0.36452 0.80101-0.65333 1.1622-0.4707 0.58875-1.1151 1.3724-1.6697 2.0339v-4.0679h-18.584v32.543c0 1.7765 3.5511 3.1986 8.1305 3.4141 0.34168 0.83948 0.75626 1.6134 1.2341 2.3971-0.02536 1.2e-4 -0.04793 0-0.07252 0-4.2636 0-8.1528-0.67212-10.744-1.5981-1.2955-0.46298-2.254-0.95405-2.7586-1.3802-0.50458-0.42611-0.43555-0.58691-0.43555-0.50848v-2.3245c0 0.16483 0.0497-0.35019 1.1615-1.017 0.70293-0.40589 1.1432-1.1494 1.1615-1.9613v-70.389c4.06e-4 -0.52796-0.17878-1.0403-0.50815-1.4528l-8.0579-9.8791 12.268-3.632c2.3563-0.68523 5.2797-1.1622 8.4934-1.1622zm49.363 16.271c8.5499 0 16.265 0.57508 21.633 1.816 2.684 0.62047 4.8158 1.4647 6.0252 2.2519 1.2094 0.7872 1.3793 1.2431 1.3793 1.7434v2.3245c0 0.45593-0.27197 1.1393-1.4519 2.1066-0.551 0.44148-0.87153 1.1097-0.87112 1.816v47.216c0 0.57011-0.29981 1.3439-1.4519 2.3245-1.152 0.98064-3.0662 2.0227-5.5171 2.9056-4.7291 1.7036-11.484 2.8288-18.947 2.9056-0.12375-0.83572-0.25703-1.6698-0.43555-2.4698 13.293-0.06515 24.028-3.6324 24.028-7.9905v-29.056h-34.845c0-1.5292-0.84012-2.7364-1.8148-3.5594-0.97472-0.82296-2.1441-1.4049-3.4845-1.8887-2.6808-0.96751-6.1163-1.5254-9.8001-1.5254-0.40662 0-0.77078 0.05617-1.1615 0.07265v-8.9348c4.06e-4 -0.70633-0.32012-1.3745-0.8711-1.816-1.1799-0.96732-1.4519-1.6506-1.4519-2.1066v-2.3245c0-0.50024 0.1699-0.95617 1.3793-1.7434 1.2094-0.7872 3.3412-1.6314 6.0252-2.2519 5.368-1.2409 13.083-1.816 21.633-1.816zm-33.683 8.1357c0 1.8694 1.0464 3.4015 2.323 4.7216v8.7169c-0.79554 0.17099-1.5741 0.36091-2.323 0.58112zm8.1305 17.434c3.2167 0 6.2207 0.51946 8.203 1.2349 0.99115 0.35771 1.6899 0.8003 2.0326 1.0896-0.25079 0.29167-0.42548 0.64111-0.50815 1.017-0.15646 0.74607-1.3303 3.6058-1.8874 6.6829-0.55712 3.0771-0.53693 6.9012 1.96 10.024 4.6906 5.8671 11.662 13.951 12.268 25.279 0.0025 0.0501-0.0023 0.0951 0 0.14527-0.05198 3.8785-2.2571 7.5179-6.1704 10.315-3.9604 2.8307-9.6148 4.649-15.898 4.649-6.2831 0-11.938-1.8183-15.898-4.649-3.9604-2.8307-6.1704-6.5289-6.1704-10.46-0.11183-11.833 7.4404-19.24 12.268-25.279 2.6624-3.3301 2.4288-7.4742 1.7422-10.678-0.0918-0.40895-0.29253-0.78544-0.58075-1.0896l-4.646-4.9396c4.502-1.662 8.2895-3.3415 13.285-3.3415zm17.35 22.083c0.70206 0.93014 1.4008 1.9362 2.1052 2.9783-0.70744-1.0458-1.4001-2.0451-2.1052-2.9783zm-36.95 2.7603c-0.72119 1.0027-1.4264 2.0746-2.1052 3.1962 0.68647-1.1263 1.3763-2.1912 2.1052-3.1962zm6.4608 2.7603c-3.5652 4.6727-6.6751 10.048-6.606 17.361 2.03e-4 0.02434 2.03e-4 0.04841 0 0.07265 0 3.0528 1.7198 6.065 5.2267 8.5716 3.507 2.5066 8.6834 4.2132 14.519 4.2132 5.8352 0 11.012-1.7066 14.519-4.2132 3.4809-2.4879 5.2017-5.4698 5.2267-8.4989-0.0014-0.0251 0.0014-0.0476 0-0.07265-0.39767-7.0023-3.4293-12.655-6.8238-17.434z"/>
</svg>
