<?xml version="1.0" encoding="UTF-8"?>
<svg style="enable-background:new 0 0 59.669 59.669" version="1.1" viewBox="0 0 59.669 59.669" xml:space="preserve" xmlns="http://www.w3.org/2000/svg" xmlns:cc="http://creativecommons.org/ns#" xmlns:dc="http://purl.org/dc/elements/1.1/" xmlns:rdf="http://www.w3.org/1999/02/22-rdf-syntax-ns#"><metadata><rdf:RDF><cc:Work rdf:about=""><dc:format>image/svg+xml</dc:format><dc:type rdf:resource="http://purl.org/dc/dcmitype/StillImage"/><dc:title/></cc:Work></rdf:RDF></metadata>
<path d="m46.848 12.82c-1.5985-1.5985-3.731-2.4788-6.0052-2.4788-2.2736 0-4.4067 0.8803-6.0052 2.4788l-5.9275 5.9275c-2.1403 2.1403-2.8886 5.1472-2.2618 7.9011-0.61497-0.13855-1.2482-0.21762-1.8952-0.21762-2.2736 0-4.4067 0.8803-6.0046 2.4788l-5.9281 5.9281c-3.3108 3.3108-3.3108 8.6997 0 12.01 1.5985 1.5985 3.731 2.4788 6.0052 2.4788 2.2743 0 4.4067-0.8803 6.0052-2.4788l5.9275-5.9275c2.1403-2.1403 2.8886-5.1472 2.2618-7.9011 0.61497 0.13855 1.2482 0.21762 1.8952 0.21762 2.2743 0 4.4074-0.8803 6.0052-2.4788l5.9281-5.9275c3.3114-3.3114 3.3114-8.6997-6.53e-4 -12.011zm-17.938 26.252-5.9275 5.9275c-1.1045 1.1045-2.5814 1.7129-4.1571 1.7129-1.5756 0-3.052-0.60843-4.1571-1.7129-2.2919-2.2926-2.2919-6.0216 0-8.3141l5.9281-5.9275c1.1045-1.1045 2.5808-1.7129 4.1564-1.7129 1.1267 0 2.1998 0.31565 3.1252 0.89663l-5.0661 5.0661c-0.5104 0.5104-0.5104 1.3378 0 1.8482 0.25488 0.25553 0.58948 0.38296 0.92408 0.38296s0.66921-0.12744 0.92408-0.38296l5.0668-5.0668c1.426 2.2703 1.1567 5.3086-0.8169 7.2829zm16.09-16.09-5.9281 5.9275c-1.1045 1.1045-2.5808 1.7129-4.1571 1.7129-1.1267 0-2.1991-0.31565-3.1245-0.89664l5.0661-5.0661c0.5104-0.5104 0.5104-1.3378 0-1.8482-0.50975-0.5104-1.3384-0.5104-1.8482 0l-5.0668 5.0668c-1.426-2.2703-1.1567-5.3079 0.8169-7.2822l5.9275-5.9275c1.1045-1.1045 2.5814-1.7129 4.1571-1.7129 1.5763 0 3.052 0.60843 4.1571 1.7129 1.1051 1.1045 1.7129 2.5808 1.7129 4.1571 0 1.5756-0.60843 3.052-1.7129 4.1564z"/>
</svg>
